<?xml version="1.0" encoding="UTF-8"?>
<svg id="katman_2" data-name="katman 2" xmlns="http://www.w3.org/2000/svg" viewBox="0 0 80 58.48">
  <defs>
    <style>
      .cls-1 {
        fill: #adafb2;
        stroke-width: 0px;
      }
    </style>
  </defs>
  <g id="katman_1" data-name="katman 1">
    <g>
      <path class="cls-1" d="M73.9.1v48.09c-11.91-.02-23.39,1.24-32.8,9.93-.03-.5-.08-.92-.08-1.34,0-14.72,0-29.44-.01-44.17,0-.77.13-1.32.81-1.84.58-.44.91-1.21,1.38-1.81.62-.79,1.13-1.75,1.92-2.29,4.94-3.41,10.54-5.18,16.43-5.95,3.4-.45,6.85-.51,10.29-.72.67-.04,1.35.06,2.07.09Z"/>
      <path class="cls-1" d="M39.03,13.66c-.02,14.09-.01,28.17-.01,42.26v2.28c-9.47-8.74-20.94-10.04-32.87-10V.15c2.43,0,4.87-.11,7.29.02,6.01.34,11.84,1.51,17.32,4.11,1.26.6,2.47,1.33,3.68,2.04,1.14.67,2.19,1.41,2.53,2.83.11.45.42.99.81,1.22,1.33.79,1.26,1.99,1.26,3.28Z"/>
      <path class="cls-1" d="M34.67,58.47H0V6.48h3.12v44.76c11.25-.44,22.13.17,31.55,7.22Z"/>
      <path class="cls-1" d="M80,6.47v52.02h-34.59c1.59-2.27,8.68-5.29,14.86-6.43,5.43-1,10.89-1.06,16.59-.77V6.47h3.14Z"/>
    </g>
  </g>
</svg>