<?xml version="1.0" encoding="UTF-8"?>
<svg id="katman_2" data-name="katman 2" xmlns="http://www.w3.org/2000/svg" viewBox="0 0 150 109.45">
  <defs>
    <style>
      .cls-1 {
        fill: #495363;
        stroke-width: 0px;
      }
    </style>
  </defs>
  <g id="katman_1" data-name="katman 1">
    <path class="cls-1" d="M144.84,0l5.16,7.27c-9.69,6.09-17.3,11.95-22.85,17.58-5.54,5.62-8.32,12.26-8.32,19.92,0,4.06,1.09,8.32,3.28,12.77,2.19,4.45,6.25,7.54,12.19,9.26,3.75,5.47,5.63,9.14,5.63,11.02,0,2.19-1.41,4.14-4.24,5.86-4.87,2.5-8.84,6.17-11.9,11.02-3.06,4.84-5.06,9.76-6.01,14.77h-5.74c-3.12-5.78-5.78-9.92-7.97-12.42-2.19-2.5-5.54-5.24-10.08-8.2l-2.58-1.87c-1.88-.63-2.81-2.03-2.81-4.22l1.41-3.52c1.88-3.13,3.2-6.8,3.98-11.02,1.41-11.72,4.3-21.88,8.67-30.47,4.38-8.59,10.2-16.02,17.46-22.27,7.27-6.25,15.51-11.41,24.73-15.47ZM56.25,0l5.16,7.27c-9.69,6.09-17.3,11.95-22.85,17.58-5.54,5.62-8.32,12.26-8.32,19.92,0,4.06,1.1,8.32,3.28,12.77,2.19,4.45,6.25,7.54,12.19,9.26,3.75,5.47,5.63,9.14,5.63,11.02,0,2.19-1.41,4.14-4.24,5.86-4.87,2.5-8.84,6.17-11.9,11.02-3.06,4.84-5.06,9.76-6.01,14.77h-5.74c-3.12-5.78-5.78-9.92-7.97-12.42-2.19-2.5-5.54-5.24-10.08-8.2l-2.58-1.87c-1.88-.63-2.81-2.03-2.81-4.22l1.41-3.52c1.88-3.13,3.2-6.8,3.99-11.02,1.41-11.72,4.3-21.88,8.67-30.47,4.38-8.59,10.2-16.02,17.46-22.27,7.26-6.25,15.51-11.41,24.73-15.47Z"/>
  </g>
</svg>