<?xml version="1.0" encoding="UTF-8"?>
<svg id="katman_2" data-name="katman 2" xmlns="http://www.w3.org/2000/svg" viewBox="0 0 76.72 80">
  <defs>
    <style>
      .cls-1 {
        fill: #adafb2;
        stroke-width: 0px;
      }
    </style>
  </defs>
  <g id="katman_1" data-name="katman 1">
    <g>
      <path class="cls-1" d="M76.69,28.58s0-.1.03-.14v-.08s-.02-.06-.02-.09h0s0-.02,0-.02c0-.37-.06-.73-.18-1.08-.24-.69-.49-1.37-.76-2.05-.41-1.05-.89-2.07-1.39-3.08-.42-.85-.89-1.68-1.38-2.5-.69-1.15-1.43-2.27-2.23-3.34-.76-1.03-1.59-2.01-2.44-2.97-.72-.82-1.83-1.11-2.87-.72-1.3.49-2.61.94-3.91,1.4-1.49.53-2.98,1.06-4.47,1.6-.89.32-1.79.54-2.75.41-1.94-.26-3.57-1.81-3.91-3.74-.16-.9-.33-1.81-.49-2.71-.4-2.18-.82-4.36-1.19-6.55-.19-1.08-.95-1.94-2.06-2.15-.63-.12-1.27-.24-1.9-.35-.83-.14-1.67-.25-2.52-.31-1.01-.07-2.03-.09-3.04-.09-.02,0-.05,0-.07,0h0s-.08,0-.12-.02h-1.25c-.48.05-.96.02-1.45.04-.54.02-1.09.03-1.63.06-.51.02-1.02.1-1.53.16-1.12.13-2.23.3-3.32.58-.99.26-1.61.92-1.81,1.92-.24,1.19-.44,2.38-.66,3.57-.34,1.82-.68,3.65-.99,5.47-.21,1.23-.69,2.3-1.67,3.1-1.03.83-2.2,1.17-3.52,1.03-.56-.06-1.07-.26-1.59-.44-1.06-.37-2.12-.75-3.18-1.13-1.26-.45-2.53-.9-3.79-1.35-.59-.21-1.16-.46-1.77-.6-.91-.21-1.72.04-2.35.72-.74.79-1.42,1.62-2.08,2.48-.77,1.01-1.5,2.04-2.18,3.12-.5.79-.97,1.6-1.41,2.43-.48.91-.93,1.83-1.35,2.77-.38.85-.72,1.72-1.04,2.59-.17.47-.36.95-.41,1.46,0,.08,0,.16,0,.23,0,.06,0,.11-.03.17v.08s.03.09.02.13H.02s0,.05,0,.07c0,.49.13.94.46,1.32.12.14.25.28.4.4,1.15.96,2.29,1.93,3.43,2.89,1.16.98,2.33,1.96,3.49,2.95.4.34.8.68,1.11,1.12.62.89.91,1.86.85,2.94-.07,1.22-.56,2.24-1.43,3.07-.53.51-1.11.96-1.68,1.43-.67.56-1.34,1.13-2.01,1.7-.84.71-1.68,1.42-2.51,2.13-.51.44-1.06.84-1.53,1.33-.31.32-.51.69-.55,1.15-.01.15,0,.3-.02.45,0,.01,0,.03,0,.04v.08s.02.07.02.1c0,.04,0,.08,0,.13.01.25.04.5.11.74.21.69.46,1.35.73,2.02.61,1.53,1.3,3.02,2.09,4.47.56,1.03,1.17,2.03,1.82,3.01.87,1.31,1.82,2.57,2.84,3.77.32.38.63.78,1,1.12.77.7,1.67.85,2.65.5.26-.09.53-.19.79-.28,1.23-.43,2.45-.87,3.68-1.31,1.52-.54,3.04-1.09,4.56-1.62.76-.26,1.54-.3,2.33-.16,1.86.33,3.36,1.86,3.68,3.72.19,1.14.41,2.27.62,3.4.32,1.73.63,3.47.96,5.2.07.36.1.74.22,1.09.3.86.89,1.42,1.78,1.66.46.12.93.19,1.4.28,1.06.2,2.12.35,3.19.43,1.03.08,2.07.09,3.11.09.03,0,.06,0,.09,0h0s.08,0,.11.02h1.29s.04-.02.06-.02h0c.67,0,1.34-.03,2.01-.04.77-.02,1.53-.09,2.29-.17,1.02-.11,2.03-.32,3.04-.49,1.26-.21,2.08-1.06,2.25-2.22.15-1,.36-2,.54-3,.38-2.05.76-4.11,1.13-6.16.2-1.1.69-2.03,1.55-2.75,1.17-.98,2.52-1.31,4.02-1.01.49.1.95.29,1.41.46,1.6.57,3.2,1.14,4.8,1.71,1.11.4,2.22.79,3.33,1.19.36.13.74.2,1.13.15.69-.08,1.24-.4,1.71-.92.89-.99,1.73-2.02,2.52-3.08.9-1.22,1.73-2.49,2.48-3.81.69-1.2,1.3-2.43,1.87-3.69.39-.86.73-1.74,1.06-2.63.16-.44.34-.88.4-1.35.02-.18.01-.37.05-.55v-.08s-.03-.1-.02-.15t0,0h0s0-.05,0-.08c0-.48-.13-.91-.45-1.28-.17-.2-.36-.37-.56-.54-1.11-.93-2.22-1.87-3.32-2.81-1.23-1.04-2.46-2.08-3.7-3.12-.44-.37-.81-.79-1.1-1.28-.46-.8-.66-1.66-.61-2.58.07-1.21.56-2.23,1.42-3.06.52-.49,1.08-.93,1.63-1.39.86-.72,1.71-1.44,2.57-2.16,1.07-.91,2.15-1.81,3.22-2.72.49-.41.86-.89.88-1.57,0-.08,0-.16,0-.24h0ZM38.32,51.66c-6.47-.02-11.58-5.19-11.64-11.65.05-6.54,5.23-11.69,11.69-11.68,6.55.01,11.65,5.24,11.65,11.64,0,6.56-5.22,11.71-11.7,11.69Z"/>
      <path class="cls-1" d="M76.7,28.25s0,.01,0,.02c-.39-1.74-1.13-3.35-1.85-4.97-.51-1.15-1.1-2.26-1.73-3.34-.63-1.07-1.31-2.12-2.03-3.13-.91-1.27-1.9-2.48-2.94-3.65-.61-.68-1.67-.92-2.63-.58-2.56.91-5.11,1.82-7.67,2.73-.63.22-1.25.49-1.91.63-2.65.55-5.16-1.16-5.64-3.83-.39-2.17-.8-4.33-1.19-6.49-.16-.9-.33-1.79-.49-2.69-.2-1.15-.86-1.84-1.99-2.08-1.65-.35-3.31-.58-4.98-.72-.8-.07-1.6-.11-2.4-.12-.04,0-.07,0-.11-.01.02,0,.05,0,.07,0,1.01,0,2.03.02,3.04.09.84.06,1.68.17,2.52.31.64.11,1.27.22,1.9.35,1.11.22,1.87,1.07,2.06,2.15.37,2.19.79,4.37,1.19,6.55.17.9.34,1.8.49,2.71.33,1.93,1.96,3.48,3.91,3.74.96.13,1.86-.09,2.75-.41,1.49-.54,2.98-1.07,4.47-1.6,1.31-.46,2.62-.92,3.91-1.4,1.05-.39,2.15-.1,2.87.72.85.96,1.67,1.94,2.44,2.97.8,1.08,1.54,2.19,2.23,3.34.49.82.95,1.65,1.38,2.5.5,1.01.97,2.03,1.39,3.08.27.68.52,1.36.76,2.05.12.35.18.71.18,1.08Z"/>
      <path class="cls-1" d="M76.72,51.64c-.04.18-.02.37-.05.55-.06.47-.24.91-.4,1.35-.32.89-.67,1.76-1.06,2.63-.56,1.26-1.18,2.49-1.87,3.69-.75,1.32-1.58,2.59-2.48,3.81-.79,1.07-1.63,2.1-2.52,3.08-.47.52-1.02.84-1.71.92-.39.04-.77-.02-1.13-.15-1.11-.4-2.22-.79-3.33-1.19-1.6-.57-3.2-1.14-4.8-1.71-.47-.17-.92-.36-1.41-.46-1.5-.31-2.84.02-4.02,1.01-.86.72-1.35,1.65-1.55,2.75-.38,2.05-.76,4.11-1.13,6.16-.18,1-.39,1.99-.54,3-.18,1.16-.99,2-2.25,2.22-1.01.17-2.02.38-3.04.49-.76.09-1.52.15-2.29.17-.67.01-1.34.04-2.01.04h0c.07-.02.15-.02.22-.02,2.47-.04,4.92-.34,7.34-.85,1.06-.22,1.71-.9,1.91-1.97.33-1.75.64-3.5.96-5.24.25-1.39.5-2.78.77-4.17.42-2.2,2.36-3.79,4.6-3.8.55,0,1.09.08,1.61.26,1.88.67,3.75,1.34,5.63,2,1.13.4,2.27.81,3.4,1.21,1.01.35,1.95.09,2.67-.71,1.36-1.49,2.58-3.08,3.7-4.76.78-1.18,1.49-2.4,2.14-3.65.97-1.89,1.8-3.84,2.47-5.86.09-.26.12-.53.18-.8Z"/>
      <path class="cls-1" d="M37.66,79.98s-.06,0-.09,0c-1.04,0-2.07,0-3.11-.09-1.07-.08-2.13-.23-3.19-.43-.47-.09-.94-.16-1.4-.28-.89-.23-1.48-.8-1.78-1.66-.12-.35-.15-.73-.22-1.09-.33-1.73-.64-3.47-.96-5.2-.21-1.13-.42-2.26-.62-3.4-.32-1.86-1.82-3.39-3.68-3.72-.79-.14-1.57-.1-2.33.16-1.53.52-3.04,1.08-4.56,1.62-1.23.44-2.45.88-3.68,1.31-.26.09-.53.19-.79.28-.98.35-1.88.2-2.65-.5-.37-.34-.68-.74-1-1.12-1.02-1.2-1.97-2.46-2.84-3.77-.65-.98-1.26-1.98-1.82-3.01-.79-1.45-1.48-2.94-2.09-4.47-.26-.67-.52-1.33-.73-2.02-.07-.24-.1-.49-.11-.74,0-.04,0-.08,0-.13.39,1.73,1.12,3.33,1.84,4.94.61,1.37,1.33,2.7,2.11,3.98.78,1.27,1.62,2.5,2.53,3.68.63.82,1.3,1.61,1.99,2.38.71.79,1.69,1.04,2.7.68,2.81-1,5.63-2.01,8.44-3.01.75-.27,1.49-.49,2.3-.45,1.69.09,2.97.86,3.87,2.28.4.62.56,1.32.69,2.04.54,2.98,1.08,5.96,1.64,8.93.19,1.02.82,1.67,1.83,1.91,1.18.27,2.38.46,3.58.6,1.34.16,2.68.27,4.03.27.03,0,.06,0,.09.01Z"/>
      <path class="cls-1" d="M37.77,0c-.09.04-.19.04-.29.04-2.02.03-4.03.23-6.02.58-.49.09-.98.16-1.46.28-1.06.24-1.7.91-1.9,1.98-.45,2.47-.9,4.94-1.35,7.41-.12.66-.24,1.32-.36,1.98-.4,2.04-2.12,3.6-4.19,3.78-.65.06-1.3,0-1.93-.22-1.9-.68-3.8-1.35-5.7-2.03-1.15-.41-2.29-.83-3.44-1.22-1.03-.34-1.92-.1-2.65.71-1.84,2.02-3.44,4.23-4.83,6.58-.83,1.4-1.56,2.86-2.2,4.35-.45,1.04-.85,2.1-1.21,3.17-.09.26-.16.52-.21.79,0-.08,0-.16,0-.23.04-.51.23-.98.41-1.46.32-.87.66-1.74,1.04-2.59.42-.94.87-1.86,1.35-2.77.44-.83.91-1.64,1.41-2.43.68-1.07,1.41-2.11,2.18-3.12.66-.86,1.34-1.69,2.08-2.48.63-.67,1.44-.93,2.35-.72.61.14,1.18.39,1.77.6,1.26.45,2.53.9,3.79,1.35,1.06.38,2.12.76,3.18,1.13.52.18,1.04.38,1.59.44,1.32.14,2.49-.19,3.52-1.03.99-.8,1.46-1.87,1.67-3.1.31-1.83.66-3.65.99-5.47.22-1.19.42-2.38.66-3.57.2-1,.82-1.66,1.81-1.92,1.09-.28,2.21-.44,3.32-.58.51-.06,1.02-.14,1.53-.16.54-.02,1.09-.03,1.63-.06.48-.02.96.01,1.45-.04Z"/>
      <path class="cls-1" d="M76.7,51.33s0,.05,0,.08c-.01-.09-.03-.17-.04-.25-.11-.58-.41-1.05-.86-1.43-1.95-1.64-3.9-3.29-5.85-4.93-.54-.45-1.09-.89-1.6-1.37-.86-.8-1.35-1.79-1.47-2.96-.11-1.19.19-2.27.88-3.24.31-.44.72-.78,1.13-1.13,2.2-1.86,4.39-3.72,6.59-5.57.4-.34.79-.67,1.01-1.17.11-.25.15-.52.2-.78,0,.08,0,.16,0,.24-.02.68-.4,1.16-.88,1.57-1.07.91-2.15,1.81-3.22,2.72-.85.72-1.71,1.44-2.57,2.16-.55.46-1.12.9-1.63,1.39-.87.83-1.35,1.85-1.42,3.06-.06.92.14,1.78.61,2.58.29.49.66.92,1.1,1.28,1.23,1.04,2.47,2.08,3.7,3.12,1.11.94,2.21,1.88,3.32,2.81.2.17.39.34.56.54.32.37.44.8.45,1.28Z"/>
      <path class="cls-1" d="M8.23,43.55c-1.5,1.29-3.02,2.56-4.53,3.83-.92.78-1.85,1.56-2.77,2.34-.52.44-.83.99-.89,1.68,0,.04-.01.08-.02.11.03-.15.01-.3.02-.45.04-.45.24-.83.55-1.15.47-.48,1.02-.89,1.53-1.33.84-.71,1.67-1.43,2.51-2.13.67-.56,1.34-1.14,2.01-1.7.56-.47,1.15-.92,1.68-1.43.87-.83,1.36-1.86,1.43-3.07.06-1.08-.23-2.06-.85-2.94-.3-.44-.71-.78-1.11-1.12-1.16-.98-2.32-1.97-3.49-2.95-1.14-.96-2.28-1.94-3.43-2.89-.14-.12-.28-.26-.4-.4-.33-.38-.46-.82-.46-1.32,0-.02,0-.05,0-.07.05.3.1.6.25.88.17.32.39.6.67.83,2.39,2.02,4.78,4.04,7.17,6.06.96.81,1.56,1.81,1.71,3.06.2,1.66-.33,3.06-1.59,4.16Z"/>
    </g>
  </g>
</svg>