<?xml version="1.0" encoding="UTF-8"?>
<svg id="katman_2" data-name="katman 2" xmlns="http://www.w3.org/2000/svg" viewBox="0 0 84.31 65.18">
  <defs>
    <style>
      .cls-1 {
        fill: #495363;
        stroke-width: 0px;
      }
    </style>
  </defs>
  <g id="katman_1" data-name="katman 1">
    <path class="cls-1" d="M49.39,10.29c8.26,6.09,16.51,12.45,24.9,18.97-8.04,6.27-16.54,12.84-25.19,19.23.04-.77.09-1.72.09-2.79v-8.41l-8.4.42c-10.96.55-20.03,3.41-27.46,8.68,5.27-10.93,12.82-17.83,23.39-21.69,5.23-1.91,11.86-5.45,12.67-14.4M46.02,0C45.36,0,44.77.11,44.32.35c-1.7.93-3.15,4.26-2.94,6.37.6,6.02-1.82,8.41-7.41,10.46C13.92,24.5,4.78,40.92.05,60.47c-.32,1.34.84,3.85,2.03,4.51.26.14.59.2.96.2,1.19,0,2.78-.63,3.73-1.33,1.89-1.42,3.31-3.46,4.9-5.26,7.67-8.69,17.54-12.29,29.51-12.89,0,2.62-.39,4.57.1,6.28.66,2.34,1.46,5.57,3.19,6.42.39.19.88.28,1.42.28,1.74,0,4.03-.88,5.43-1.9,9.84-7.19,19.49-14.66,29.1-22.15,5.1-3.98,5.17-6.71.27-10.52-9.77-7.59-19.57-15.17-29.57-22.46C49.84.71,47.71,0,46.02,0h0Z"/>
  </g>
</svg>