<?xml version="1.0" encoding="UTF-8"?>
<svg id="katman_2" data-name="katman 2" xmlns="http://www.w3.org/2000/svg" xmlns:xlink="http://www.w3.org/1999/xlink" viewBox="0 0 1137.77 1329.53">
  <defs>
    <style>
      .cls-1 {
        fill: #495363;
        opacity: .05;
      }

      .cls-1, .cls-2 {
        stroke-width: 0px;
      }

      .cls-2 {
        fill: none;
      }

      .cls-3 {
        clip-path: url(#clippath);
      }
    </style>
    <clipPath id="clippath">
      <rect class="cls-2" width="1137.77" height="1329.53"/>
    </clipPath>
  </defs>
  <g id="katman_1" data-name="katman 1">
    <g class="cls-3">
      <path class="cls-1" d="M1425.37,824.87c46.13-51.77,83.62-110.15,109.31-177.79.55-1.39,1.06-2.78,1.6-4.17.31-.83.63-1.65.94-2.48,17.15-44.94,27.12-90.23,30.54-134.83.11-1.4.2-2.81.3-4.21.18-2.61.36-5.23.49-7.83.2-3.85.34-7.7.44-11.55.01-.58.05-1.16.06-1.75.1-4.57.13-9.13.08-13.69-.02-2.39-.1-4.76-.16-7.14-.05-1.75-.07-3.51-.14-5.26-4.59-130.97-65.02-251.97-163.6-334.66-73.45-63.37-166.61-104.4-269.12-109.69-27.16-1.39-53.87-1.38-80.17-.09-156.6,6.89-296.25,61.61-423.57,152.33-18.01,12.85-34.01,20.65-49.47,23.62-.18.03-.36.06-.54.09-2.17.4-4.32.68-6.47.9-.86.08-1.71.13-2.56.18-1.49.09-2.97.15-4.46.15-1.48,0-2.97-.06-4.46-.15-.86-.05-1.71-.1-2.56-.18-2.15-.21-4.3-.49-6.47-.9-.18-.03-.36-.06-.55-.09-15.45-2.97-31.45-10.77-49.47-23.62C378.05,71.35,238.41,16.62,81.81,9.74c-26.3-1.3-53.01-1.31-80.17.09-102.5,5.29-195.67,46.31-269.11,109.69-98.58,82.7-159.01,203.69-163.6,334.66-.07,1.75-.09,3.51-.14,5.26-.06,2.38-.14,4.76-.16,7.14-.04,4.55-.02,9.12.08,13.69.01.58.05,1.16.06,1.75.1,3.84.24,7.69.44,11.55.13,2.61.32,5.22.5,7.83.1,1.4.19,2.81.3,4.21,3.42,44.6,13.39,89.89,30.54,134.83.3.83.63,1.65.94,2.48.54,1.39,1.05,2.78,1.6,4.17,25.69,67.64,63.19,126.02,109.31,177.79,45.83,53.59,99.43,99.37,160.14,137.72,7.9,5.44,15.87,10.83,23.94,16.14,40.32,26.5,110.05,43.45,117.5,75.98,8.93,39.01-34.41,89.91-55.05,135.75-31.56,70.12-11.03,112.66,66.31,122.84,3.97.52,7.93.92,11.89,1.39,8.29,1.12,17.14,2.04,26.63,2.76,89.18,7.91,176.81,2.08,261.64-22.39,90.03-23.51,171.45-64.1,243.48-122.15,72.03,58.05,153.45,98.64,243.48,122.15,84.83,24.47,172.46,30.31,261.64,22.39,9.49-.72,18.34-1.64,26.63-2.76,3.97-.47,7.92-.87,11.9-1.39,77.34-10.18,97.87-52.72,66.31-122.84-20.64-45.84-63.98-96.74-55.05-135.75,7.45-32.53,77.17-49.48,117.49-75.98,8.08-5.31,16.04-10.7,23.94-16.14,60.71-38.35,114.31-84.13,160.14-137.72ZM1172.98,870.49c-49.84,29.22-103.98,53.17-160.87,73.6-12.52,4.5-23.5,8.48-33.04,12.17-24.68,9.13-39.53,16.5-46.01,26.27-12.77,17.16.41,40.74,31.51,93.39,19.68,33.33,38.05,67.39,56.98,101.06-5.35,6.65-10.69,13.31-16.09,19.9-9.59-.32-19.12-.87-28.62-1.53-48.14-7.13-96.87-12.49-141.95-28.27-10.63-3.71-20.61-6.17-30.16-7.7-35.77-13.59-70.39-31.3-103.53-54.12-31.82-21.9-20-45.04-5.39-65.96,8.91-12.06,17.61-24.47,26.07-37.32,103.11-156.74,127.16-331.04,51.87-509.62-8.61-20.35-13.12-51.46-31.32-64.56-12.21-22.25-25.68-44.02-40.15-65.39-34.35-50.61-25.99-82.06,24.68-113.51,44.19-27.4,89.22-51.8,135.52-71.13,51.32-19.86,105.91-33.98,163.95-41.93,12.95-1.77,25.8-2.9,38.53-3.52,27.75-.55,56.06,1.3,85.01,5.91,120.51,19.21,211.3,90.63,257.23,184.61.33.69.66,1.38.99,2.07.78,1.62,1.54,3.24,2.29,4.87,18.12,40.34,27.96,83.18,29.93,126.55,1.96,54.66-9.23,111.77-35.6,167.52-26.77,56.57-60.86,104.4-100.68,145.32-39.99,39.53-83.87,73.01-131.14,101.32ZM436.57,1105.27c-33.14,22.82-67.76,40.53-103.53,54.12-9.54,1.53-19.53,3.99-30.16,7.7-45.09,15.78-93.82,21.14-141.95,28.27-9.5.66-19.03,1.21-28.62,1.53-5.4-6.6-10.75-13.25-16.09-19.9,18.94-33.67,37.31-67.73,56.98-101.06,31.1-52.65,44.29-76.23,31.51-93.39-6.48-9.76-21.33-17.14-46.01-26.27-9.55-3.69-20.52-7.67-33.04-12.17-56.89-20.43-111.02-44.38-160.87-73.6-47.27-28.31-91.15-61.79-131.14-101.32-39.82-40.91-73.91-88.74-100.68-145.32-26.37-55.74-37.56-112.86-35.6-167.52,1.97-43.37,11.82-86.21,29.93-126.55.75-1.63,1.51-3.26,2.29-4.87.32-.69.66-1.38.99-2.07C-223.5,228.87-132.71,157.44-12.2,138.24c28.94-4.61,57.25-6.46,85-5.91,12.74.62,25.58,1.75,38.53,3.52,58.04,7.95,112.63,22.07,163.95,41.93,46.3,19.33,91.33,43.73,135.52,71.13,50.67,31.45,59.03,62.9,24.68,113.51-14.47,21.37-27.94,43.14-40.15,65.39-18.19,13.1-22.71,44.21-31.32,64.56-75.3,178.57-51.24,352.88,51.87,509.62,8.46,12.85,17.17,25.26,26.07,37.32,14.61,20.92,26.43,44.05-5.39,65.96ZM522.78,933.35c-69.28-111.8-88.72-234.66-57.87-350.81,4.53-15.25,9.99-30.57,16.55-45.98,3.11-7.32,5.48-14.3,7.18-20.97,17.13-38.32,40.06-75.47,68.84-110.74,3.77-4.62,7.57-9.19,11.41-13.71,3.84,4.52,7.64,9.09,11.41,13.71,28.78,35.28,51.7,72.42,68.84,110.74,1.71,6.67,4.07,13.65,7.18,20.97,6.55,15.4,12.02,30.73,16.55,45.98,30.85,116.15,11.41,239.01-57.87,350.81-17.58,28.41-31.95,43.04-46.1,43.77-14.15-.73-28.52-15.36-46.1-43.77Z"/>
    </g>
  </g>
</svg>