<?xml version="1.0" encoding="UTF-8"?>
<svg id="katman_2" data-name="katman 2" xmlns="http://www.w3.org/2000/svg" viewBox="0 0 80 80">
  <defs>
    <style>
      .cls-1 {
        fill: #adafb2;
        stroke-width: 0px;
      }
    </style>
  </defs>
  <g id="katman_1" data-name="katman 1">
    <g>
      <path class="cls-1" d="M44.27,37.99s.09.03.19.06c-.17.83-.34,1.67-.51,2.5-.17.83-.34,1.65-.5,2.48-.05.22-.12.36-.4.36-2.65,0-5.3.02-7.95.02-.06,0-.12-.02-.23-.04.23-1.16.47-2.31.7-3.46.11-.52.2-1.06.34-1.58.04-.13.23-.31.36-.31,2.66-.03,5.33-.03,8-.03Z"/>
      <path class="cls-1" d="M40,0C17.91,0,0,17.91,0,40s17.91,40,40,40,40-17.91,40-40S62.09,0,40,0ZM58.44,37.92c-2.29.05-4.58.04-6.87.03-.4,0-.53.12-.61.51-.3,1.61-.64,3.21-.99,4.9h.55c2.19-.01,4.39-.02,6.58-.02,1.93,0,3.36,1.37,3.36,3.21,0,1.86-1.42,3.25-3.38,3.25-2.61.01-5.21.03-7.82.01-.52-.01-.66.16-.75.64-.5,2.52-1.02,5.04-1.54,7.57-.33,1.57-1.57,2.64-3.1,2.68-1.52.03-2.86-.95-3.19-2.42-.12-.51-.12-1.08-.02-1.6.4-2.16.86-4.3,1.3-6.45.02-.11.03-.21.06-.39h-.5c-2.45.01-4.9.03-7.35.03-.47-.01-.68.1-.78.61-.49,2.58-1.01,5.15-1.57,7.71-.44,2.01-2.61,3.06-4.48,2.22-1.32-.6-2.11-2.02-1.84-3.44.41-2.17.87-4.33,1.31-6.5.04-.17.06-.34.1-.57h-.5c-1.59.01-3.18.02-4.77.01-1.86,0-3.28-1.39-3.29-3.19-.01-1.81,1.37-3.24,3.22-3.26,2.07-.03,4.14-.03,6.2-.01.38,0,.52-.12.59-.48.31-1.62.65-3.24,1-4.93h-2.37c-1.4.01-2.8.03-4.2.01-1.87-.01-3.29-1.44-3.27-3.25.01-1.82,1.44-3.2,3.33-3.21,2.45,0,4.9-.01,7.34-.01.37,0,.52-.09.6-.47.61-3.09,1.24-6.17,1.89-9.25.38-1.79,2.08-2.87,3.85-2.49,1.7.37,2.81,2.03,2.48,3.74-.52,2.62-1.07,5.23-1.6,7.85-.04.17-.06.34-.1.58h.56c2.43-.01,4.86-.03,7.29-.01.5,0,.68-.13.78-.62.58-2.98,1.2-5.95,1.81-8.92.39-1.89,2.05-3,3.9-2.61,1.73.36,2.8,2.06,2.43,3.88-.53,2.6-1.06,5.2-1.59,7.81-.02.12-.04.24-.06.42h.5c1.8,0,3.59,0,5.39,0,1.87,0,3.27,1.34,3.32,3.15.05,1.79-1.34,3.25-3.2,3.28Z"/>
    </g>
  </g>
</svg>