<?xml version="1.0" encoding="UTF-8"?>
<svg id="katman_2" data-name="katman 2" xmlns="http://www.w3.org/2000/svg" viewBox="0 0 300 196.74">
  <defs>
    <style>
      .cls-1 {
        fill: #495363;
        stroke-width: 0px;
      }
    </style>
  </defs>
  <g id="katman_1" data-name="katman 1">
    <path class="cls-1" d="M278.44,122.38c6.92-7.76,12.54-16.52,16.39-26.66.08-.21.16-.42.24-.63.05-.12.09-.25.14-.37,2.57-6.74,4.07-13.53,4.58-20.22.02-.21.03-.42.04-.63.03-.39.05-.78.07-1.17.03-.58.05-1.16.07-1.73,0-.09,0-.17,0-.26.01-.69.02-1.37.01-2.05,0-.36-.01-.71-.02-1.07,0-.26-.01-.53-.02-.79-.69-19.64-9.75-37.78-24.53-50.19C264.41,7.1,250.43.95,235.06.16c-4.07-.21-8.08-.21-12.02-.01-23.48,1.03-44.42,9.24-63.52,22.84-2.7,1.93-5.1,3.1-7.42,3.54-.03,0-.05,0-.08.01-.33.06-.65.1-.97.13-.13.01-.26.02-.38.03-.22.01-.45.02-.67.02-.22,0-.45,0-.67-.02-.13,0-.26-.02-.38-.03-.32-.03-.65-.07-.97-.13-.03,0-.05,0-.08-.01-2.32-.45-4.72-1.61-7.42-3.54C121.38,9.38,100.44,1.18,76.96.14c-3.94-.19-7.95-.2-12.02.01-15.37.79-29.34,6.94-40.36,16.45C9.8,29.01.73,47.15.05,66.79c0,.26-.01.53-.02.79,0,.36-.02.71-.02,1.07,0,.68,0,1.37.01,2.05,0,.09,0,.17,0,.26.01.58.04,1.15.07,1.73.02.39.05.78.07,1.17.01.21.03.42.04.63.51,6.69,2.01,13.48,4.58,20.22.05.12.09.25.14.37.08.21.16.42.24.63,3.85,10.14,9.48,18.9,16.39,26.66,6.87,8.04,14.91,14.9,24.02,20.65,1.18.82,2.38,1.62,3.59,2.42,6.05,3.97,16.5,6.52,17.62,11.39,1.34,5.85-5.16,13.48-8.26,20.36-4.73,10.52-1.65,16.89,9.94,18.42.6.08,1.19.14,1.78.21,1.24.17,2.57.31,3.99.41,13.37,1.19,26.51.31,39.24-3.36,13.5-3.52,25.71-9.61,36.51-18.32,10.8,8.7,23.01,14.79,36.51,18.32,12.72,3.67,25.86,4.54,39.24,3.36,1.42-.11,2.75-.25,3.99-.41.59-.07,1.19-.13,1.78-.21,11.6-1.53,14.68-7.91,9.94-18.42-3.1-6.87-9.59-14.51-8.26-20.36,1.12-4.88,11.57-7.42,17.62-11.39,1.21-.8,2.41-1.6,3.59-2.42,9.1-5.75,17.14-12.62,24.02-20.65ZM240.59,129.22c-7.47,4.38-15.59,7.97-24.12,11.04-1.88.67-3.52,1.27-4.95,1.82-3.7,1.37-5.93,2.47-6.9,3.94-1.92,2.57.06,6.11,4.73,14,2.95,5,5.71,10.11,8.55,15.15-.8,1-1.6,2-2.41,2.98-1.44-.05-2.87-.13-4.29-.23-7.22-1.07-14.53-1.87-21.29-4.24-1.59-.56-3.09-.93-4.52-1.15-5.36-2.04-10.56-4.69-15.53-8.12-4.77-3.28-3-6.75-.81-9.89,1.34-1.81,2.64-3.67,3.91-5.6,15.46-23.5,19.07-49.64,7.78-76.42-1.29-3.05-1.97-7.72-4.7-9.68-1.83-3.34-3.85-6.6-6.02-9.81-5.15-7.59-3.9-12.31,3.7-17.02,6.63-4.11,13.38-7.77,20.32-10.67,7.7-2.98,15.88-5.1,24.59-6.29,1.94-.27,3.87-.44,5.78-.53,4.16-.08,8.41.19,12.75.89,18.07,2.88,31.69,13.59,38.57,27.68.05.1.1.21.15.31.12.24.23.49.34.73,2.72,6.05,4.19,12.47,4.49,18.98.29,8.2-1.38,16.76-5.34,25.12-4.01,8.48-9.13,15.66-15.1,21.79-6,5.93-12.58,10.95-19.67,15.19ZM130.16,164.43c-4.97,3.42-10.16,6.08-15.53,8.12-1.43.23-2.93.6-4.52,1.15-6.76,2.37-14.07,3.17-21.29,4.24-1.42.1-2.85.18-4.29.23-.81-.99-1.61-1.99-2.41-2.98,2.84-5.05,5.59-10.16,8.55-15.15,4.66-7.9,6.64-11.43,4.73-14-.97-1.46-3.2-2.57-6.9-3.94-1.43-.55-3.08-1.15-4.95-1.82-8.53-3.06-16.65-6.66-24.12-11.04-7.09-4.25-13.67-9.27-19.67-15.19-5.97-6.14-11.08-13.31-15.1-21.79-3.95-8.36-5.63-16.92-5.34-25.12.3-6.5,1.77-12.93,4.49-18.98.11-.24.23-.49.34-.73.05-.1.1-.21.15-.31,6.89-14.09,20.5-24.8,38.57-27.68,4.34-.69,8.59-.97,12.75-.89,1.91.09,3.84.26,5.78.53,8.7,1.19,16.89,3.31,24.59,6.29,6.94,2.9,13.7,6.56,20.32,10.67,7.6,4.72,8.85,9.43,3.7,17.02-2.17,3.2-4.19,6.47-6.02,9.81-2.73,1.96-3.41,6.63-4.7,9.68-11.29,26.78-7.68,52.92,7.78,76.42,1.27,1.93,2.57,3.79,3.91,5.6,2.19,3.14,3.96,6.61-.81,9.89ZM143.09,138.65c-10.39-16.77-13.3-35.19-8.68-52.61.68-2.29,1.5-4.58,2.48-6.89.47-1.1.82-2.14,1.08-3.14,2.57-5.75,6.01-11.32,10.32-16.61.57-.69,1.14-1.38,1.71-2.06.58.68,1.15,1.36,1.71,2.06,4.32,5.29,7.75,10.86,10.32,16.61.26,1,.61,2.05,1.08,3.14.98,2.31,1.8,4.61,2.48,6.89,4.63,17.42,1.71,35.84-8.68,52.61-2.64,4.26-4.79,6.45-6.91,6.56-2.12-.11-4.28-2.3-6.91-6.56Z"/>
  </g>
</svg>