<?xml version="1.0" encoding="UTF-8"?>
<svg id="katman_2" data-name="katman 2" xmlns="http://www.w3.org/2000/svg" viewBox="0 0 66.17 67.45">
  <defs>
    <style>
      .cls-1 {
        fill: #495363;
        stroke-width: 0px;
      }
    </style>
  </defs>
  <g id="katman_1" data-name="katman 1">
    <path class="cls-1" d="M43.38,8c2.36,0,4.31,0,6.14.03,5.27.06,8.47,3.24,8.56,8.51.11,6.57.12,13.72.02,22.51-.07,5.56-3.06,8.76-8.64,9.26h-.09c-.31.04-.66.07-.88.07-2.07-.32-4.12-.49-6.1-.49-7.96,0-15.17,2.59-21.51,7.7-1.05-3.06-3.38-6.47-8.63-8.52-1.83-.72-3.94-2.06-4.04-6.1-.18-7.6-.34-16.42.02-24.98.21-5.02,3.4-7.92,8.74-7.96,2.07-.02,4.14-.02,6.21-.02,1.63,0,3.26,0,4.88,0,1.64,0,3.28,0,4.91,0,1.74,0,3.49,0,5.23-.01,1.73,0,3.45-.01,5.18-.01M43.38,0c-3.47,0-6.94.02-10.41.02C29.7.02,26.44,0,23.17,0c-2.09,0-4.19,0-6.28.02C7.46.11.62,6.26.23,15.65-.13,24.14,0,32.66.2,41.16c.15,6.29,3.33,11.09,9.12,13.36,3.62,1.42,4.37,3.4,4.4,6.93.02,2.03,1.21,4.84,2.79,5.81.22.13.52.19.88.19,1.45,0,3.75-1.01,4.76-2.1,5.73-6.21,12.37-9.46,20.23-9.46,1.62,0,3.28.14,5,.42.35.05.7.08,1.05.08.57,0,1.15-.05,1.71-.1,9.68-.87,15.83-7.41,15.95-17.13.09-7.58.12-15.16-.02-22.74C65.9,6.8,59.14.14,49.61.03c-2.08-.02-4.15-.03-6.23-.03h0Z"/>
  </g>
</svg>