<?xml version="1.0" encoding="UTF-8"?>
<svg id="katman_2" data-name="katman 2" xmlns="http://www.w3.org/2000/svg" viewBox="0 0 80.29 68.86">
  <defs>
    <style>
      .cls-1 {
        fill: #495363;
        stroke-width: 0px;
      }
    </style>
  </defs>
  <g id="katman_1" data-name="katman 1">
    <path class="cls-1" d="M56.72,8c5.46,0,9.65,2.62,11.76,5.07,5.36,6.24,5.08,17.59-.64,25.86-7.19,10.4-17.99,16.91-27.74,21.9-12.44-6.27-20.95-12.99-26.78-21.13-5.79-8.1-6.85-15.67-3.23-23.15,2.67-5.51,7.01-8.43,12.55-8.43,4.11,0,8.72,1.57,13.33,4.54l4.76,3.06,4.47-3.48c3.62-2.81,7.49-4.24,11.5-4.24M56.73,0c-5.3,0-11,1.72-16.41,5.92C34.25,2.02,28.18.12,22.65.12,14.23.12,7.03,4.53,2.9,13.06-2.46,24.13.05,34.89,6.82,44.35c7.65,10.7,18.42,17.99,30.07,23.82.9.45,2.13.69,3.33.69,1.06,0,2.1-.19,2.88-.58,12.09-6.13,23.45-13.4,31.32-24.8,7.93-11.47,7.66-26.86.13-35.62C70.65,3.31,64.08,0,56.73,0h0Z"/>
  </g>
</svg>