<?xml version="1.0" encoding="UTF-8"?>
<svg id="katman_2" data-name="katman 2" xmlns="http://www.w3.org/2000/svg" viewBox="0 0 820.57 316.15">
  <defs>
    <style>
      .cls-1 {
        fill: #495363;
        stroke-width: 0px;
      }
    </style>
  </defs>
  <g id="katman_1" data-name="katman 1">
    <g>
      <path class="cls-1" d="M223.57,84.19v44.71h-7.25V0h33.84c9.83,1.34,18.18,5.45,25.06,12.33,8.22,8.22,12.33,18.13,12.33,29.73s-4.11,21.59-12.33,29.81-18.13,12.33-29.73,12.33h-21.91ZM223.57,7.33v69.53h21.91c9.56,0,17.74-3.4,24.53-10.19s10.19-15,10.19-24.61-3.4-17.81-10.19-24.57c-6.79-6.77-14.97-10.15-24.53-10.15h-21.91Z"/>
      <path class="cls-1" d="M301.16,49.79h7.25v14.42c1.5-2.15,3.25-4.22,5.24-6.2,6.39-6.39,12.94-9.75,19.66-10.07v7.9c-4.57.22-9.29,2.77-14.18,7.65-6.88,6.82-10.45,15.01-10.72,24.57v40.85h-7.25V49.79Z"/>
      <path class="cls-1" d="M364.16,114.08c6.82,6.23,14.93,9.35,24.33,9.35,10.1,0,18.72-3.57,25.86-10.72.91-.91,1.77-1.85,2.58-2.82l7.65,2.74c-1.4,1.93-2.98,3.79-4.75,5.56-8.65,8.65-19.09,12.97-31.34,12.97s-22.61-4.32-31.26-12.97c-8.65-8.65-12.97-19.09-12.97-31.34s4.32-22.61,12.97-31.26,19.07-12.97,31.26-12.97c10.47,0,19.63,3.14,27.47,9.43,1.29,1.08,2.58,2.26,3.87,3.54.48.48.94.97,1.37,1.45l-5.48,5.48-51.56,51.56ZM410.41,57.6c-6.28-4.83-13.59-7.25-21.91-7.25-10.04,0-18.64,3.56-25.78,10.68-7.14,7.12-10.72,15.72-10.72,25.82,0,8.33,2.42,15.63,7.25,21.91l51.16-51.16Z"/>
      <path class="cls-1" d="M455.2,49.79V16.11h7.25v33.68h16.11v7.25h-16.11v71.87h-7.25V57.04h-16.11v-7.25h16.11Z"/>
      <path class="cls-1" d="M509.18,49.79V16.11h7.25v33.68h16.11v7.25h-16.11v71.87h-7.25V57.04h-16.11v-7.25h16.11Z"/>
      <path class="cls-1" d="M580.32,121.82l-17.89,37.3h-7.09l21.35-44.8-30.86-64.53h8.22l26.27,56.72,26.26-56.72h8.14l-34.4,72.11v-.08Z"/>
      <path class="cls-1" d="M70.33,264.51H25.7l-17.97,49.39H0l48.02-131.89,47.94,131.89h-7.65l-17.97-49.39ZM67.68,257.25l-19.66-54.06-19.66,54.06h39.32Z"/>
      <path class="cls-1" d="M122.54,242.03v71.87h-7.25v-71.87h-8.06v-7.25h8.06v-21.43c.32-5.96,2.6-11.09,6.85-15.39,4.4-4.08,9.48-6.12,15.23-6.12,3.01,0,6.18.56,9.51,1.69l-2.26,6.45c-2.26-.97-4.43-1.45-6.53-1.45-3.81,0-7.41,1.53-10.8,4.59-3.01,2.96-4.59,6.53-4.75,10.72v20.95h16.11v7.25h-16.11Z"/>
      <path class="cls-1" d="M163.47,242.03v71.87h-7.25v-71.87h-8.06v-7.25h8.06v-21.43c.32-5.96,2.6-11.09,6.85-15.39,4.4-4.08,9.48-6.12,15.23-6.12,3.01,0,6.18.56,9.51,1.69l-2.26,6.45c-2.26-.97-4.43-1.45-6.53-1.45-3.81,0-7.41,1.53-10.8,4.59-3.01,2.96-4.59,6.53-4.75,10.72v20.95h16.11v7.25h-16.11Z"/>
      <path class="cls-1" d="M203.07,208.83c1.42,1.4,2.14,3.09,2.14,5.08s-.71,3.76-2.14,5.16c-1.42,1.4-3.13,2.09-5.12,2.09s-3.69-.7-5.12-2.09c-1.42-1.4-2.14-3.12-2.14-5.16s.71-3.68,2.14-5.08c1.42-1.4,3.13-2.09,5.12-2.09s3.69.7,5.12,2.09ZM201.58,234.78v79.12h-7.25v-79.12h7.25Z"/>
      <path class="cls-1" d="M227.36,234.78h7.25v14.42c1.5-2.15,3.25-4.22,5.24-6.2,6.39-6.39,12.94-9.75,19.66-10.07v7.89c-4.57.22-9.29,2.77-14.18,7.65-6.88,6.82-10.45,15.01-10.72,24.57v40.85h-7.25v-79.12Z"/>
      <path class="cls-1" d="M277.87,234.78h7.25v1.85c4.51-4.35,9.91-6.53,16.19-6.53s12.03,2.28,16.6,6.85c1.23,1.24,2.31,2.58,3.22,4.03.91-1.4,2.01-2.74,3.3-4.03,4.56-4.56,10.1-6.85,16.6-6.85s12.03,2.28,16.6,6.85c4.35,4.41,6.63,9.7,6.85,15.87v61.07h-7.25v-61.07h.08c-.22-4.19-1.8-7.76-4.75-10.72-3.22-3.17-7.06-4.75-11.52-4.75s-8.29,1.58-11.48,4.75c-3.2,3.17-4.79,7.12-4.79,11.84v59.94h-7.25v-61.07h.08c-.22-4.19-1.8-7.76-4.75-10.72-3.22-3.17-7.06-4.75-11.52-4.75s-8.27,1.58-11.44,4.75c-2.79,2.74-4.38,6.1-4.75,10.07v61.71h-7.25v-79.12Z"/>
      <path class="cls-1" d="M474.05,313.89h-7.25v-16.11c-1.4,1.88-2.93,3.68-4.59,5.4-8.65,8.65-19.1,12.97-31.34,12.97s-22.61-4.32-31.26-12.97c-8.65-8.65-12.97-19.07-12.97-31.26s4.32-22.69,12.97-31.34c8.65-8.65,19.07-12.97,31.26-12.97s22.69,4.32,31.34,12.97c1.66,1.72,3.19,3.52,4.59,5.4v-11.2h7.25v79.12ZM466.8,279.09v-14.34c-1.34-7.09-4.7-13.32-10.07-18.69-7.14-7.14-15.77-10.72-25.86-10.72s-18.72,3.57-25.86,10.72c-7.14,7.14-10.72,15.76-10.72,25.86s3.57,18.71,10.72,25.82c7.14,7.12,15.76,10.67,25.86,10.67s18.72-3.57,25.86-10.71c5.37-5.37,8.73-11.57,10.07-18.61Z"/>
      <path class="cls-1" d="M509.9,234.78v-33.68h7.25v33.68h16.11v7.25h-16.11v71.87h-7.25v-71.87h-16.11v-7.25h16.11Z"/>
      <path class="cls-1" d="M562.96,208.83c1.42,1.4,2.13,3.09,2.13,5.08s-.71,3.76-2.13,5.16c-1.42,1.4-3.13,2.09-5.12,2.09s-3.69-.7-5.12-2.09c-1.42-1.4-2.14-3.12-2.14-5.16s.71-3.68,2.14-5.08c1.42-1.4,3.13-2.09,5.12-2.09s3.69.7,5.12,2.09ZM561.47,234.78v79.12h-7.25v-79.12h7.25Z"/>
      <path class="cls-1" d="M626.65,227.61c12.25,0,22.68,4.32,31.3,12.97,8.62,8.65,12.93,19.09,12.93,31.34s-4.31,22.61-12.93,31.26c-8.62,8.65-19.05,12.97-31.3,12.97s-22.61-4.32-31.26-12.97c-8.65-8.65-12.97-19.07-12.97-31.26s4.32-22.69,12.97-31.34c8.65-8.65,19.07-12.97,31.26-12.97ZM600.78,246.06c-7.14,7.14-10.72,15.76-10.72,25.86s3.57,18.71,10.72,25.82c7.14,7.12,15.76,10.67,25.86,10.67s18.72-3.56,25.86-10.67c7.14-7.12,10.71-15.72,10.71-25.82s-3.57-18.72-10.71-25.86c-7.14-7.14-15.76-10.72-25.86-10.72s-18.72,3.57-25.86,10.72Z"/>
      <path class="cls-1" d="M697.46,252.42v61.47h-7.25v-79.12h7.25v5.08c6.61-6.55,14.29-9.83,23.04-9.83,9.35,0,16.95,2.93,22.8,8.78,5.85,5.85,8.86,13.24,9.02,22.16v52.93h-7.25v-52.29c0-6.71-2.43-12.45-7.29-17.2-4.86-4.75-10.62-7.13-17.28-7.13s-12.41,2.34-17.24,7.01c-2.63,2.63-4.57,5.34-5.8,8.14Z"/>
      <path class="cls-1" d="M798.25,273.21c-6.18-3.33-10.45-6.18-12.81-8.54-3.71-3.71-5.56-8.16-5.56-13.37s1.85-9.76,5.56-13.5c3.71-3.73,8.16-5.6,13.38-5.6s9.61,1.72,13.05,5.16c3.33,3.38,5,7.22,5,11.52v.4l-6.29,2.5c-.54-4.08-1.81-7.14-3.83-9.18-2.01-2.04-4.66-3.06-7.94-3.06s-5.99,1.14-8.3,3.42c-2.31,2.28-3.46,5.06-3.46,8.34s1.16,5.99,3.46,8.3c1.34,1.34,4.19,3.38,8.54,6.12,6.88,3.76,11.76,7.09,14.66,9.99,4.56,4.62,6.85,10.12,6.85,16.52s-2.28,12.12-6.85,16.72c-4.57,4.59-10.1,6.89-16.6,6.89s-12.03-2.3-16.6-6.89c-4.57-4.59-6.85-9.63-6.85-15.11l7.17-1.85c0,4.73,1.6,8.67,4.79,11.84,3.19,3.17,7.02,4.75,11.48,4.75s8.28-1.58,11.48-4.75c3.2-3.17,4.79-7.04,4.79-11.6s-1.58-8.27-4.75-11.44c-1.72-1.72-5.18-4.24-10.39-7.57Z"/>
    </g>
  </g>
</svg>